# xmcd CD database file
# Copyright (C) 1997 Ti Kan
# 
# Track frame offsets:
#     150
#     22177
#     39230
#     60345
#     82040
#     99510
#     122655
#     132985
#     152557
#     172037
#     195287
#     221240
# 
# Disc length: 3154 seconds
# 
# Revision: 1
# Processed by: cddbd v1.4b41PL1 Copyright (c) Steve Scherf et al.
# Submitted via: DiscPlay 4.0.3
# 
DISCID=9e0c500c
DTITLE=Paul Geremia - Gamblin' Woman Blues
DYEAR=1900
DGENRE=
TTITLE0=Gamblin' Woman Blues
TTITLE1=Cocaine Princess
TTITLE2=Skin Game Blues
TTITLE3=Nobody's Sweetheart Now
TTITLE4=Cheater's Spell
TTITLE5=Blues Around Midnight
TTITLE6=She Moves It Just Right
TTITLE7=Special Rider Blues
TTITLE8=Good Liquor Gonna Carry Me Down
TTITLE9=One More Last Time
TTITLE10=The Things That Used To Matter
TTITLE11=Doctor Jazz
EXTD=
EXTT0=
EXTT1=
EXTT2=
EXTT3=
EXTT4=
EXTT5=
EXTT6=
EXTT7=
EXTT8=
EXTT9=
EXTT10=
EXTT11=
PLAYORDER=
